<svg width="297px" height="90px" viewBox="0 0 297 90" version="1.1" xmlns="http://www.w3.org/2000/svg" xmlns:xlink="http://www.w3.org/1999/xlink">
    <!-- Generator: Sketch 48.2 (47327) - http://www.bohemiancoding.com/sketch -->
    <title>Group</title>
    <desc>Created with Sketch.</desc>
    <defs></defs>
    <g id="Page-1" stroke="none" stroke-width="1" fill="none" fill-rule="evenodd">
        <g id="Group" transform="translate(-3.000000, -25.000000)">
            <path d="M18.0761719,71.9707031 C17.4316374,71.9707031 16.9628921,71.8535168 16.6699219,71.6191406 C16.3769517,71.3847645 16.2304688,70.9843778 16.2304688,70.4179688 L16.2304688,62.5957031 C15.7031224,62.2246075 14.7314524,61.8974624 13.3154297,61.6142578 C11.899407,61.3310533 10.5371159,61.150391 9.22851562,61.0722656 C8.83788867,61.7363314 8.50586074,62.7519463 8.23242188,64.1191406 L8.05664062,65.0273438 C7.74413906,66.6289143 7.46093877,67.9277294 7.20703125,68.9238281 C6.95312373,69.9199269 6.64062686,70.7207001 6.26953125,71.3261719 C4.72655479,71.3261719 3.84765732,70.9257853 3.6328125,70.125 C4.00390811,69.5976536 4.50195,67.7226724 5.12695312,64.5 C5.65429951,61.74608 6.30858984,58.0840072 7.08984375,53.5136719 C7.98828574,48.2011453 8.80859004,43.7334166 9.55078125,40.1103516 C10.2929725,36.4872866 11.0742146,33.4355593 11.8945312,30.9550781 C12.7929732,28.1816268 13.6718707,26.7949219 14.53125,26.7949219 C15.3710979,26.7949219 16.0156228,26.9707014 16.4648438,27.3222656 C16.4648438,28.806648 16.8554648,32.6640313 17.6367188,38.8945312 C18.4179727,45.1250312 18.8085938,49.2265526 18.8085938,51.1992188 C18.8085938,53.0742281 19.0234354,56.1015416 19.453125,60.28125 C19.8632833,64.5781465 20.0683594,67.8007705 20.0683594,69.9492188 C20.0683594,71.2968817 19.4043035,71.9707031 18.0761719,71.9707031 Z M14.9414062,59.0800781 C15.2929705,59.0800781 15.7031227,59.021485 16.171875,58.9042969 C16.113281,58.0449176 15.9082049,55.867205 15.5566406,52.3710938 C14.6386673,43.113235 14.1796875,37.5859465 14.1796875,35.7890625 C14.1796875,35.4960923 14.189453,35.3203128 14.2089844,35.2617188 C13.8183574,35.6523457 13.2714879,37.4589683 12.5683594,40.6816406 C11.8652309,43.904313 11.2109405,47.3661924 10.6054688,51.0673828 C9.99999697,54.7685732 9.66796904,57.2148378 9.609375,58.40625 C11.3086022,58.855471 13.0859282,59.0800781 14.9414062,59.0800781 Z M49.8925781,48.3867188 C49.8925781,47.39062 49.9316402,46.150398 50.0097656,44.6660156 C50.087891,43.2011646 50.1269531,41.9707081 50.1269531,40.9746094 C49.951171,41.5214871 49.2773496,44.2851313 48.1054688,49.265625 C46.8359312,54.5781516 45.6445368,59.0605286 44.53125,62.7128906 C43.3203064,66.6777542 42.3339882,68.6601562 41.5722656,68.6601562 C40.8105431,68.6601562 40.2050804,68.4257836 39.7558594,67.9570312 C39.3066384,67.4882789 39.0820312,66.8632852 39.0820312,66.0820312 C39.0820312,64.9101504 38.735355,62.7373206 38.0419922,59.5634766 C37.3486293,56.3896326 36.5234423,53.0107601 35.5664062,49.4267578 C34.6093702,45.8427555 33.7695349,42.9668077 33.046875,40.7988281 L32.6953125,47.5664062 C32.5195304,50.6718905 32.3876958,53.2402242 32.2998047,55.2714844 C32.2119136,57.3027445 32.1289066,59.4902227 32.0507812,61.8339844 C31.9531245,64.9199373 31.9042969,67.4394434 31.9042969,69.3925781 L31.9628906,70.3007812 C31.982422,70.5742201 31.9921875,70.8671859 31.9921875,71.1796875 C31.9921875,71.8632847 31.8457046,72.3662093 31.5527344,72.6884766 C31.2597642,73.0107438 30.7421912,73.171875 30,73.171875 C29.5898417,73.171875 29.2041034,73.0302749 28.8427734,72.7470703 C28.4814435,72.4638658 28.3007812,72.1269551 28.3007812,71.7363281 C28.3007812,67.7909959 28.6132781,61.6777758 29.2382812,53.3964844 C29.843753,45.3886318 30.1464844,39.2754117 30.1464844,35.0566406 C29.9121082,34.6660137 29.7949219,34.2753926 29.7949219,33.8847656 C29.7949219,33.3964819 30.0244118,33.0302747 30.4833984,32.7861328 C30.9423851,32.541991 31.4843719,32.4199219 32.109375,32.4199219 C32.6367214,32.4199219 33.5937431,34.2997859 34.9804688,38.0595703 C36.3671944,41.8193547 37.7636648,46.0771247 39.1699219,50.8330078 C40.5761789,55.588891 41.4843729,59.0312394 41.8945312,61.1601562 C42.1093761,60.4570277 42.4804661,58.9726676 43.0078125,56.7070312 C44.3945382,50.7499702 45.6738223,45.6816615 46.8457031,41.5019531 C47.6074257,38.8066271 48.3496058,36.6484456 49.0722656,35.0273438 C49.8339882,33.3476479 50.5078096,32.5078125 51.09375,32.5078125 C51.6601591,32.5078125 52.1679665,32.6591782 52.6171875,32.9619141 C53.0664085,33.26465 53.2910156,33.6601538 53.2910156,34.1484375 C53.2910156,37.2539218 53.4179675,41.5702849 53.671875,47.0976562 C53.9257825,52.6250276 54.0527344,56.7949078 54.0527344,59.6074219 L53.9941406,62.7714844 C53.9355466,64.1777414 53.90625,65.2324184 53.90625,65.9355469 L53.90625,65.9648438 C53.90625,66.316408 54.0234363,67.7324095 54.2578125,70.2128906 L54.375,71.4140625 C54.5507821,71.8632835 54.6386719,72.2441391 54.6386719,72.5566406 C54.6386719,73.2207064 54.4482441,73.8164036 54.0673828,74.34375 C53.6865215,74.8710964 53.2031279,75.1347656 52.6171875,75.1347656 C51.3671813,75.1347656 50.7421875,73.8847781 50.7421875,71.3847656 C50.7421875,69.9785086 50.751953,68.6992245 50.7714844,67.546875 L50.7714844,63.7089844 C50.7714844,61.9121004 50.6250015,59.3047046 50.3320312,55.8867188 C50.039061,52.4492016 49.8925781,49.9492266 49.8925781,48.3867188 Z M74.0039062,64.4414062 L73.7695312,63.1523438 L67.8515625,62.2734375 C67.5195296,63.425787 67.1875017,65.2812372 66.8554688,67.8398438 C66.6015612,69.8125099 66.2207057,71.111325 65.7128906,71.7363281 C65.3808577,72.1269551 64.9707056,72.3222656 64.4824219,72.3222656 C63.9941382,72.3222656 63.5546895,72.1660172 63.1640625,71.8535156 C62.7734355,71.5410141 62.578125,71.1601585 62.578125,70.7109375 C62.578125,70.6523435 62.6074216,70.5546882 62.6660156,70.4179688 L62.7246094,70.1835938 C65.400404,59.8515108 67.4023371,49.7148935 68.7304688,39.7734375 C68.8085941,38.9140582 68.8769528,38.1035194 68.9355469,37.3417969 C69.0332036,35.8574145 69.1601555,34.6709029 69.3164062,33.7822266 C69.472657,32.8935502 69.7070297,32.2246116 70.0195312,31.7753906 L72.0410156,31.7753906 C72.6269561,31.7753906 73.1152324,31.9072252 73.5058594,32.1708984 C73.8964863,32.4345716 74.0917969,32.8105444 74.0917969,33.2988281 C74.0917969,36.3457184 74.501949,40.8671575 75.3222656,46.8632812 C76.1230509,52.9375304 76.5234375,57.2538935 76.5234375,59.8125 C76.5234375,60.1445329 76.6308583,60.7597611 76.8457031,61.6582031 C77.0605479,62.5566451 77.1679688,63.1718733 77.1679688,63.5039062 C77.1679688,63.9335959 77.3632793,65.1249902 77.7539062,67.078125 C78.1250019,68.933603 78.3105469,70.173825 78.3105469,70.7988281 L78.3105469,70.8574219 C78.3105469,71.7363325 77.9785189,72.3027331 77.3144531,72.5566406 C76.4160111,72.5566406 75.7470725,72.4101577 75.3076172,72.1171875 C74.8681619,71.8242173 74.6484375,71.3066443 74.6484375,70.5644531 C74.6484375,69.2949155 74.4335959,67.2539203 74.0039062,64.4414062 Z M73.3886719,61.0136719 C73.2714838,60.4277314 73.2128906,59.6855514 73.2128906,58.7871094 C73.2128906,56.8925687 73.1347664,54.9052838 72.9785156,52.8251953 C72.8222648,50.7451068 72.5781267,48.1328282 72.2460938,44.9882812 C71.9726549,42.6249882 71.7578133,40.5546964 71.6015625,38.7773438 C69.7851472,48.8359878 68.6132839,55.9257606 68.0859375,60.046875 C68.7500033,60.4765646 70.5175638,60.7988271 73.3886719,61.0136719 Z M95.5371094,35.203125 L93.1933594,35.3789062 C92.0996039,35.4960943 91.250003,35.5546875 90.6445312,35.5546875 C90.2343729,35.5546875 89.8730484,35.3837908 89.5605469,35.0419922 C89.2480453,34.7001936 89.0917969,34.3144553 89.0917969,33.8847656 C89.0917969,32.7519475 91.2890405,32.1855469 95.6835938,32.1855469 C97.6562599,32.1855469 98.6425781,32.7421819 98.6425781,33.8554688 C98.6425781,35.2421944 98.2128949,37.1464723 97.3535156,39.5683594 C96.4550736,42.0488405 95.9375007,43.7480423 95.8007812,44.6660156 C95.3124976,47.7324372 94.2675861,52.3710627 92.6660156,58.5820312 C91.0449138,64.8906565 90.1757818,68.3378877 90.0585938,68.9238281 L91.0839844,68.9238281 C91.3769546,68.9238281 91.7968723,68.8945315 92.34375,68.8359375 C92.9101591,68.7773435 93.3300768,68.7480469 93.6035156,68.7480469 L93.6035156,68.71875 C95.2246175,68.71875 96.0351562,69.2070264 96.0351562,70.1835938 C96.0351562,70.6328147 95.8300802,70.9892565 95.4199219,71.2529297 C95.0097636,71.5166029 94.5214872,71.6484375 93.9550781,71.6484375 C93.5839825,71.6484375 92.9980509,71.6191409 92.1972656,71.5605469 C91.4160117,71.5019528 90.8203146,71.4726562 90.4101562,71.4726562 C90.1757801,71.4726562 89.8242211,71.5800771 89.3554688,71.7949219 C88.8671851,72.0097667 88.5058605,72.1171875 88.2714844,72.1171875 C87.8417947,72.1171875 87.4658219,71.9902356 87.1435547,71.7363281 C86.8212875,71.4824206 86.6601562,71.1601582 86.6601562,70.7695312 C86.6601562,68.3671755 87.119136,65.2422067 88.0371094,61.3945312 C88.9550827,57.5468558 90.3320221,52.6543266 92.1679688,46.7167969 C93.7890706,41.5214584 94.9121062,37.6836062 95.5371094,35.203125 Z M115.400391,64.7929688 L115.400391,67.4296875 C115.380859,67.683595 115.371094,67.9570298 115.371094,68.25 L116.162109,68.25 C116.435548,68.25 116.699217,68.2402345 116.953125,68.2207031 C117.207033,68.2011718 117.519529,68.1914062 117.890625,68.1914062 C119.531258,68.1914062 120.351562,68.6894481 120.351562,69.6855469 C120.351562,70.1933619 120.151369,70.6279279 119.750977,70.9892578 C119.350584,71.3505877 118.886721,71.53125 118.359375,71.53125 L115.722656,71.53125 C113.847647,71.53125 112.685549,71.4921879 112.236328,71.4140625 L111.503906,71.4726562 C110.078118,71.4726562 109.365234,71.023442 109.365234,70.125 C109.365234,69.7734357 109.482421,69.4267595 109.716797,69.0849609 C109.951173,68.7431624 110.185546,68.5625001 110.419922,68.5429688 L112.119141,68.5429688 L112.177734,68.1621094 L112.236328,67.7519531 C112.236328,66.1503826 112.167969,64.0214977 112.03125,61.3652344 C111.894531,58.7089711 111.826172,56.5898517 111.826172,55.0078125 C111.826172,53.5038987 111.884765,51.2773585 112.001953,48.328125 C112.09961,45.0468586 112.148438,42.8203184 112.148438,41.6484375 C112.148438,39.2851444 112.050782,37.1367284 111.855469,35.203125 L110.712891,35.203125 C110.478514,35.203125 110.253907,35.2128905 110.039062,35.2324219 C109.824218,35.2519532 109.589845,35.2617188 109.335938,35.2617188 C108.710934,35.2617188 108.242189,35.1445324 107.929688,34.9101562 C107.617186,34.6757801 107.460938,34.2558624 107.460938,33.6503906 C107.460938,32.7324173 108.447256,32.2734375 110.419922,32.2734375 L117.568359,32.2734375 C118.427739,32.2734375 119.042967,32.3906238 119.414062,32.625 C119.804689,32.8984389 120,33.2011702 120,33.5332031 C120,33.9042987 119.824221,34.2460922 119.472656,34.5585938 C119.121092,34.8710953 118.720705,35.0273438 118.271484,35.0273438 L115.195312,35.0273438 C115.351563,36.785165 115.429688,38.6406152 115.429688,40.59375 C115.429688,41.5703174 115.38086,43.4745952 115.283203,46.3066406 C115.166015,48.8457158 115.107422,50.7597592 115.107422,52.0488281 C115.107422,53.1425836 115.15625,55.2714686 115.253906,58.4355469 C115.351563,61.5996252 115.400391,63.7187446 115.400391,64.7929688 Z M146.044922,66.4628906 C146.845707,57.9862857 147.246094,47.8399028 147.246094,36.0234375 C147.246094,35.7499986 147.236328,35.4863294 147.216797,35.2324219 L147.158203,34.4121094 C147.158203,33.2206972 147.656245,32.625 148.652344,32.625 C149.199221,32.625 149.619139,32.8496071 149.912109,33.2988281 C150.20508,33.7480491 150.351562,34.3046842 150.351562,34.96875 L150.351562,39.5097656 C150.3125,43.0449396 150.200196,47.2343508 150.014648,52.078125 C149.829101,56.9218992 149.575197,61.2431451 149.25293,65.0419922 C148.930662,68.8408393 148.574221,71.0527312 148.183594,71.6777344 C147.070307,72.0097673 146.367189,72.1757812 146.074219,72.1757812 C145.566404,72.1757812 145.195314,72.0439466 144.960938,71.7802734 C144.726561,71.5166002 144.541016,71.0722688 144.404297,70.4472656 C144.267577,69.8808565 144.150391,69.4902354 144.052734,69.2753906 L144.082031,69.1582031 L144.082031,69.0117188 C144.082031,68.0937454 143.417975,65.623067 142.089844,61.5996094 C140.761712,57.5761518 139.233407,53.2402576 137.504883,48.5917969 C135.776359,43.9433361 134.45313,40.5644637 133.535156,38.4550781 L133.535156,68.6601562 L133.769531,69.0703125 C134.023439,69.4804708 134.150391,69.8124987 134.150391,70.0664062 C134.150391,70.5742213 133.969728,71.01367 133.608398,71.3847656 C133.247069,71.7558612 132.822268,71.9414062 132.333984,71.9414062 C131.025384,71.9414062 130.371094,70.7207153 130.371094,68.2792969 L130.253906,47.7128906 C130.253906,46.4628844 130.312499,44.5976687 130.429688,42.1171875 C130.546876,39.617175 130.605469,37.7519593 130.605469,36.5214844 C130.605469,34.646475 131.337883,33.1718804 132.802734,32.0976562 L132.802734,32.4785156 C132.958985,32.3808589 133.105468,32.3320312 133.242188,32.3320312 C134.179692,32.3320312 135.351555,33.9433433 136.757812,37.1660156 C137.851568,39.6855595 138.872066,42.4394382 139.819336,45.4277344 C140.766606,48.4160306 141.855463,52.0878688 143.085938,56.4433594 L143.964844,59.5195313 C145.058599,63.3867381 145.751952,65.7011681 146.044922,66.4628906 Z M168.515625,72.46875 C167.402338,72.46875 166.376958,72.2587912 165.439453,71.8388672 C164.501948,71.4189432 163.720706,70.8769564 163.095703,70.2128906 C162.568357,69.6464815 162.094729,68.8408255 161.674805,67.7958984 C161.254881,66.7509713 160.91797,65.6914116 160.664062,64.6171875 C160.468749,63.8164022 160.312501,62.7080149 160.195312,61.2919922 C160.078124,59.8759695 160.009766,58.6503958 159.990234,57.6152344 C159.970703,57.0488253 159.960938,55.876962 159.960938,54.0996094 L159.960938,51.7265625 C159.960938,49.4218635 160.009765,47.5175856 160.107422,46.0136719 C160.166016,44.9589791 160.253906,44.0166057 160.371094,43.1865234 C160.488282,42.3564412 160.654296,41.4043022 160.869141,40.3300781 C161.064454,39.3535107 161.308592,38.5039099 161.601562,37.78125 C161.894533,37.0585901 162.275388,36.3261756 162.744141,35.5839844 C163.193362,34.8808559 163.701169,34.299807 164.267578,33.8408203 C164.833987,33.3818336 165.507809,33.0156264 166.289062,32.7421875 C167.070316,32.4687486 167.910152,32.3320312 168.808594,32.3320312 C170.507821,32.3320312 171.357422,32.8398387 171.357422,33.8554688 C171.357422,34.3046897 171.166994,34.6855453 170.786133,34.9980469 C170.405272,35.3105484 169.96094,35.4667969 169.453125,35.4667969 C169.277343,35.4667969 169.062501,35.4375003 168.808594,35.3789062 L168.193359,35.3203125 C167.509762,35.3203125 166.899417,35.6865198 166.362305,36.4189453 C165.825193,37.1513708 165.390627,38.1523374 165.058594,39.421875 C164.394528,42.0000129 163.964845,44.705064 163.769531,47.5371094 C163.61328,49.8418084 163.535156,51.853507 163.535156,53.5722656 C163.535156,55.4277437 163.593749,57.2929594 163.710938,59.1679688 C163.789063,60.3398496 163.901366,61.3505817 164.047852,62.2001953 C164.194337,63.0498089 164.414061,63.9531202 164.707031,64.9101562 C164.98047,65.8671923 165.312498,66.6435517 165.703125,67.2392578 C166.093752,67.8349639 166.591794,68.328123 167.197266,68.71875 C167.802737,69.1289083 168.486324,69.3339844 169.248047,69.3339844 C171.18165,69.3339844 172.148438,66.1504225 172.148438,59.7832031 L172.148438,57.0292969 C171.835936,56.8730461 171.367191,56.7949219 170.742188,56.7949219 L170.214844,56.7949219 C170.039062,56.8144532 169.82422,56.8242188 169.570312,56.8242188 C168.183587,56.8242188 167.490234,56.365239 167.490234,55.4472656 C167.490234,54.9003879 167.680662,54.4755875 168.061523,54.1728516 C168.442385,53.8701157 168.935544,53.71875 169.541016,53.71875 L169.541016,53.7480469 L170.361328,53.7480469 C173.955096,53.7480469 175.751953,54.3632751 175.751953,55.59375 C175.751953,56.042971 175.644532,56.7753855 175.429688,57.7910156 C175.214843,58.8066457 175.107422,59.5292947 175.107422,59.9589844 C175.107422,60.4667994 175.15625,61.5214764 175.253906,63.1230469 C175.351563,64.7246174 175.400391,65.7890599 175.400391,66.3164062 C175.400391,67.5859438 175.087894,68.6845657 174.462891,69.6123047 C173.837888,70.5400437 173.002935,71.2480444 171.958008,71.7363281 C170.913081,72.2246118 169.765631,72.46875 168.515625,72.46875 Z M208.623047,34.2070312 C208.623047,35.7500077 208.828123,37.3173749 209.238281,38.9091797 C209.64844,40.5009845 210.195309,41.9706964 210.878906,43.3183594 L211.318359,44.1972656 C213.193369,47.8886903 214.443356,50.3984309 215.068359,51.7265625 C215.751957,53.1523509 216.298826,54.7685457 216.708984,56.5751953 C217.119143,58.381845 217.324219,60.1835848 217.324219,61.9804688 C217.324219,63.230475 217.153322,64.4999936 216.811523,65.7890625 C216.469725,67.0781314 215.986331,68.2890568 215.361328,69.421875 C214.697262,70.6132872 213.818365,71.5605434 212.724609,72.2636719 C211.630854,72.9668004 210.429694,73.3183594 209.121094,73.3183594 C207.675774,73.3183594 206.445318,73.0546901 205.429687,72.5273438 C204.785153,72.2148422 204.462891,71.80469 204.462891,71.296875 C204.462891,70.8281227 204.580077,70.4423843 204.814453,70.1396484 C205.048829,69.8369125 205.380857,69.6855469 205.810547,69.6855469 C206.279299,69.6855469 206.874996,69.8320298 207.597656,70.125 C208.300785,70.4375016 208.808592,70.59375 209.121094,70.59375 C209.863285,70.59375 210.551755,70.2617221 211.186523,69.5976562 C211.821292,68.9335904 212.324217,68.074224 212.695312,67.0195312 C213.046877,66.0429639 213.315429,65.0761767 213.500977,64.1191406 C213.686524,63.1621046 213.779297,62.3222692 213.779297,61.5996094 C213.779297,59.9003821 213.505862,58.1035251 212.958984,56.2089844 C212.412107,54.3144437 211.679692,52.4589935 210.761719,50.6425781 L209.912109,48.9726562 C208.955073,47.1171782 208.183597,45.5498111 207.597656,44.2705078 C207.011716,42.9912045 206.503908,41.638679 206.074219,40.2128906 C205.488278,38.2988186 205.195312,36.4433684 205.195312,34.6464844 C205.195312,33.2011646 205.439451,31.8388736 205.927734,30.5595703 C206.416018,29.280267 207.167964,28.1914107 208.183594,27.2929688 C209.199224,26.3554641 210.42968,25.8867188 211.875,25.8867188 C212.59766,25.8867188 213.300778,26.0917948 213.984375,26.5019531 C214.667972,26.9121114 215.146483,27.4296844 215.419922,28.0546875 L214.394531,29.34375 C213.398433,29.34375 212.61719,29.1484395 212.050781,28.7578125 C211.347653,28.8359379 210.717776,29.1777313 210.161133,29.7832031 C209.604489,30.3886749 209.208986,31.1015584 208.974609,31.921875 C208.740233,32.7031289 208.623047,33.46484 208.623047,34.2070312 Z M231.914062,68.71875 L231.855469,66.4335938 L231.943359,64.3828125 C231.787109,63.9140602 231.474612,59.495159 231.005859,51.1259766 C230.537107,42.7567941 230.273438,37.4589955 230.214844,35.2324219 C227.910145,35.1738278 226.416019,34.9199241 225.732422,34.4707031 C225.322264,34.1972643 225.117187,33.8554708 225.117187,33.4453125 C225.117187,33.0937482 225.322264,32.7910169 225.732422,32.5371094 C226.14258,32.2832019 226.572263,32.15625 227.021484,32.15625 C227.919926,32.15625 229.277335,32.2441397 231.09375,32.4199219 C232.83204,32.6152354 234.189448,32.7128906 235.166016,32.7128906 C235.341798,32.7128906 235.498046,32.7031251 235.634766,32.6835938 L236.132812,32.6835938 C237.382819,32.6835938 238.007812,33.1621046 238.007812,34.1191406 C238.007812,34.587893 237.807619,34.9785141 237.407227,35.2910156 C237.006834,35.6035172 236.542971,35.7597656 236.015625,35.7597656 C235.605467,35.7597656 235.087894,35.6914069 234.462891,35.5546875 L233.261719,35.3496094 L233.203125,35.6132812 L233.144531,35.9648438 C233.144531,39.8711133 233.476559,45.5448847 234.140625,52.9863281 C234.804691,60.4277716 235.136719,66.1113085 235.136719,70.0371094 C235.136719,70.5058617 234.92676,70.9208966 234.506836,71.2822266 C234.086912,71.6435565 233.613284,71.8242188 233.085937,71.8242188 L231.972656,71.0332031 L231.914062,68.71875 Z M254.384766,72.9082031 C253.42773,72.9082031 252.568363,72.6933615 251.806641,72.2636719 C251.044918,71.8339822 250.42969,71.2285195 249.960937,70.4472656 C249.472654,69.626949 249.072267,68.7626999 248.759766,67.8544922 C248.447264,66.9462845 248.212891,65.9160214 248.056641,64.7636719 C247.783202,62.7519431 247.646484,60.5449339 247.646484,58.1425781 C247.548828,53.3573979 247.5,48.0840132 247.5,42.3222656 C247.5,40.9355399 247.451172,38.9922 247.353516,36.4921875 L247.236328,33.7382812 C247.607424,32.8984333 248.037107,32.4785156 248.525391,32.4785156 C248.994143,32.4785156 249.414061,32.8398401 249.785156,33.5625 C250.156252,34.2851599 250.341797,35.0664021 250.341797,35.90625 L250.341797,52.2246094 C250.341797,53.6503978 250.48828,55.7695172 250.78125,58.5820312 C251.054689,61.4922021 251.191406,63.6113215 251.191406,64.9394531 C251.191406,67.8691553 252.460925,69.3339844 255,69.3339844 C257.851577,69.3339844 259.277344,58.5821388 259.277344,37.078125 L259.277344,33.1816406 C259.257812,33.0449212 259.248047,32.8886728 259.248047,32.7128906 C259.248047,32.2246069 259.365233,31.8681652 259.599609,31.6435547 C259.833986,31.4189442 260.263669,31.3066406 260.888672,31.3066406 C261.396487,31.3066406 261.806639,31.4580063 262.119141,31.7607422 C262.431642,32.0634781 262.617187,32.4101543 262.675781,32.8007812 C262.714844,33.2695336 262.734375,33.7382789 262.734375,34.2070312 C262.734375,34.9882852 262.666016,36.0039 262.529297,37.2539062 C262.392577,38.5039125 262.324219,39.4999963 262.324219,40.2421875 C262.324219,40.9062533 262.285157,41.7363231 262.207031,42.7324219 C262.109375,43.9628968 262.060547,44.8027321 262.060547,45.2519531 C262.060547,45.4472666 262.070312,45.6132806 262.089844,45.75 C262.109375,45.9062508 262.119141,46.0820303 262.119141,46.2773438 C262.119141,64.0313388 259.541041,72.9082031 254.384766,72.9082031 Z M276.416016,48.328125 L276.416016,49.9394531 L276.914062,49.9101562 L277.529297,49.9101562 C279.4629,49.9101562 280.429688,50.4374947 280.429688,51.4921875 C280.429688,52.0000025 280.219729,52.4199202 279.799805,52.7519531 C279.379881,53.083986 278.886722,53.25 278.320312,53.25 C277.460933,53.25 276.669925,53.1328137 275.947266,52.8984375 L275.947266,69.890625 C275.947266,71.6484463 275.429693,72.5273438 274.394531,72.5273438 C273.749997,72.5273438 273.037113,72.2246124 272.255859,71.6191406 C272.587892,67.8886532 272.841796,62.8008135 273.017578,56.3554688 C273.154298,50.0273121 273.291015,45.7207146 273.427734,43.4355469 L273.427734,41.9707031 C273.583985,38.8847502 273.662109,36.1699336 273.662109,33.8261719 C273.662109,33.2792941 273.891599,32.8447282 274.350586,32.5224609 C274.809573,32.2001937 275.351559,32.0390625 275.976562,32.0390625 C277.363288,32.0390625 278.857414,32.1562488 280.458984,32.390625 C281.494146,32.5468758 282.319333,32.8056623 282.93457,33.1669922 C283.549808,33.5283221 283.857422,33.9628881 283.857422,34.4707031 C283.857422,35.6035213 282.841807,36.1699219 280.810547,36.1699219 C279.99023,35.7792949 278.945319,35.5839844 277.675781,35.5839844 L276.972656,35.5839844 L276.972656,36.2871094 C276.972656,37.5761783 276.884767,39.5585804 276.708984,42.234375 C276.513671,44.7929815 276.416016,46.8242112 276.416016,48.328125 Z M292.119141,48.328125 L292.119141,49.9394531 L292.617188,49.9101562 L293.232422,49.9101562 C295.166025,49.9101562 296.132812,50.4374947 296.132812,51.4921875 C296.132812,52.0000025 295.922854,52.4199202 295.50293,52.7519531 C295.083006,53.083986 294.589847,53.25 294.023438,53.25 C293.164058,53.25 292.37305,53.1328137 291.650391,52.8984375 L291.650391,69.890625 C291.650391,71.6484463 291.132818,72.5273438 290.097656,72.5273438 C289.453122,72.5273438 288.740238,72.2246124 287.958984,71.6191406 C288.291017,67.8886532 288.544921,62.8008135 288.720703,56.3554688 C288.857423,50.0273121 288.99414,45.7207146 289.130859,43.4355469 L289.130859,41.9707031 C289.28711,38.8847502 289.365234,36.1699336 289.365234,33.8261719 C289.365234,33.2792941 289.594724,32.8447282 290.053711,32.5224609 C290.512698,32.2001937 291.054684,32.0390625 291.679688,32.0390625 C293.066413,32.0390625 294.560539,32.1562488 296.162109,32.390625 C297.197271,32.5468758 298.022458,32.8056623 298.637695,33.1669922 C299.252933,33.5283221 299.560547,33.9628881 299.560547,34.4707031 C299.560547,35.6035213 298.544932,36.1699219 296.513672,36.1699219 C295.693355,35.7792949 294.648444,35.5839844 293.378906,35.5839844 L292.675781,35.5839844 L292.675781,36.2871094 C292.675781,37.5761783 292.587892,39.5585804 292.412109,42.234375 C292.216796,44.7929815 292.119141,46.8242112 292.119141,48.328125 Z" id="Amazing-Stuff" fill="#000000"></path>
            <path d="M185.402344,112.399414 C185.402344,112.096678 185.514647,111.828126 185.739258,111.59375 C185.963868,111.359374 186.227538,111.242188 186.530273,111.242188 C186.813478,111.242188 187.062499,111.356932 187.277344,111.586426 C187.492189,111.815919 187.599609,112.077147 187.599609,112.370117 C187.599609,112.692384 187.489747,112.956054 187.27002,113.161133 C187.050292,113.366212 186.76465,113.46875 186.413086,113.46875 C186.149413,113.46875 185.91504,113.358888 185.709961,113.13916 C185.504882,112.919432 185.402344,112.672853 185.402344,112.399414 Z M189.723633,112.399414 C189.723633,112.096678 189.835936,111.828126 190.060547,111.59375 C190.285157,111.359374 190.548827,111.242188 190.851562,111.242188 C191.134767,111.242188 191.383788,111.356932 191.598633,111.586426 C191.813478,111.815919 191.920898,112.077147 191.920898,112.370117 C191.920898,112.692384 191.811036,112.956054 191.591309,113.161133 C191.371581,113.366212 191.085939,113.46875 190.734375,113.46875 C190.470702,113.46875 190.236329,113.358888 190.03125,113.13916 C189.826171,112.919432 189.723633,112.672853 189.723633,112.399414 Z M194.044922,112.399414 C194.044922,112.096678 194.157225,111.828126 194.381836,111.59375 C194.606446,111.359374 194.870116,111.242188 195.172852,111.242188 C195.456056,111.242188 195.705077,111.356932 195.919922,111.586426 C196.134767,111.815919 196.242188,112.077147 196.242188,112.370117 C196.242188,112.692384 196.132325,112.956054 195.912598,113.161133 C195.69287,113.366212 195.407228,113.46875 195.055664,113.46875 C194.791991,113.46875 194.557618,113.358888 194.352539,113.13916 C194.14746,112.919432 194.044922,112.672853 194.044922,112.399414 Z M206.320312,109.220703 L206.203125,108.576172 L203.244141,108.136719 C203.078124,108.712894 202.91211,109.640619 202.746094,110.919922 C202.61914,111.906255 202.428712,112.555662 202.174805,112.868164 C202.008788,113.063478 201.803712,113.161133 201.55957,113.161133 C201.315428,113.161133 201.095704,113.083009 200.900391,112.926758 C200.705077,112.770507 200.607422,112.580079 200.607422,112.355469 C200.607422,112.326172 200.62207,112.277344 200.651367,112.208984 L200.680664,112.091797 C202.018561,106.925755 203.019528,101.857447 203.683594,96.8867188 C203.722656,96.4570291 203.756836,96.0517597 203.786133,95.6708984 C203.834961,94.9287072 203.898437,94.3354514 203.976562,93.8911133 C204.054688,93.4467751 204.171874,93.1123058 204.328125,92.8876953 L205.338867,92.8876953 C205.631837,92.8876953 205.875976,92.9536126 206.071289,93.0854492 C206.266603,93.2172858 206.364258,93.4052722 206.364258,93.6494141 C206.364258,95.1728592 206.569334,97.4335788 206.979492,100.431641 C207.379885,103.468765 207.580078,105.626947 207.580078,106.90625 C207.580078,107.072266 207.633789,107.379881 207.741211,107.829102 C207.848633,108.278323 207.902344,108.585937 207.902344,108.751953 C207.902344,108.966798 207.999999,109.562495 208.195312,110.539062 C208.38086,111.466802 208.473633,112.086912 208.473633,112.399414 L208.473633,112.428711 C208.473633,112.868166 208.307619,113.151367 207.975586,113.27832 C207.526365,113.27832 207.191896,113.205079 206.972168,113.058594 C206.75244,112.912109 206.642578,112.653322 206.642578,112.282227 C206.642578,111.647458 206.535157,110.62696 206.320312,109.220703 Z M206.012695,107.506836 C205.954101,107.213866 205.924805,106.842776 205.924805,106.393555 C205.924805,105.446284 205.885743,104.452642 205.807617,103.412598 C205.729492,102.372553 205.607423,101.066414 205.441406,99.4941406 C205.304687,98.3124941 205.197266,97.2773482 205.119141,96.3886719 C204.210933,101.417994 203.625001,104.96288 203.361328,107.023438 C203.693361,107.238282 204.577141,107.399414 206.012695,107.506836 Z M220.77832,110.231445 C221.178713,105.993143 221.378906,100.919951 221.378906,95.0117188 C221.378906,94.8749993 221.374023,94.7431647 221.364258,94.6162109 L221.334961,94.2060547 C221.334961,93.6103486 221.583982,93.3125 222.082031,93.3125 C222.35547,93.3125 222.565429,93.4248036 222.711914,93.6494141 C222.858399,93.8740246 222.931641,94.1523421 222.931641,94.484375 L222.931641,96.7548828 C222.912109,98.5224698 222.855957,100.617175 222.763184,103.039062 C222.67041,105.46095 222.543458,107.621573 222.382324,109.520996 C222.221191,111.42042 222.04297,112.526366 221.847656,112.838867 C221.291013,113.004884 220.939454,113.087891 220.792969,113.087891 C220.539061,113.087891 220.353516,113.021973 220.236328,112.890137 C220.11914,112.7583 220.026368,112.536134 219.958008,112.223633 C219.889648,111.940428 219.831055,111.745118 219.782227,111.637695 L219.796875,111.579102 L219.796875,111.505859 C219.796875,111.046873 219.464847,109.811533 218.800781,107.799805 C218.136715,105.788076 217.372563,103.620129 216.508301,101.295898 C215.644039,98.9716681 214.982424,97.2822318 214.523438,96.2275391 L214.523438,111.330078 L214.640625,111.535156 C214.767579,111.740235 214.831055,111.906249 214.831055,112.033203 C214.831055,112.287111 214.740724,112.506835 214.560059,112.692383 C214.379394,112.877931 214.166993,112.970703 213.922852,112.970703 C213.268551,112.970703 212.941406,112.360358 212.941406,111.139648 L212.882812,100.856445 C212.882812,100.231442 212.912109,99.2988343 212.970703,98.0585938 C213.029297,96.8085875 213.058594,95.8759796 213.058594,95.2607422 C213.058594,94.3232375 213.424801,93.5859402 214.157227,93.0488281 L214.157227,93.2392578 C214.235352,93.1904294 214.308593,93.1660156 214.376953,93.1660156 C214.845705,93.1660156 215.431637,93.9716716 216.134766,95.5830078 C216.681643,96.8427797 217.191892,98.2197191 217.665527,99.7138672 C218.139163,101.208015 218.683591,103.043934 219.298828,105.22168 L219.738281,106.759766 C220.285159,108.693369 220.631835,109.850584 220.77832,110.231445 Z M227.648438,94.1621094 C227.648438,93.9082019 227.7583,93.6811533 227.978027,93.480957 C228.197755,93.2807607 228.439452,93.1806641 228.703125,93.1806641 C229.396488,93.1806641 230.070309,93.3393539 230.724609,93.6567383 C231.37891,93.9741227 231.955076,94.4062473 232.453125,94.953125 C232.951174,95.5000027 233.380858,96.1176723 233.742188,96.8061523 C234.103517,97.4946323 234.376952,98.2099572 234.5625,98.9521484 C234.748048,99.684574 234.84082,100.421871 234.84082,101.164062 L234.811523,101.881836 L234.782227,102.672852 L234.782227,104.328125 C234.782227,105.001956 234.774902,105.546385 234.760254,105.961426 C234.745605,106.376467 234.708985,106.837888 234.650391,107.345703 C234.591797,107.882815 234.50879,108.354002 234.401367,108.759277 C234.293945,109.164553 234.142579,109.591795 233.947266,110.041016 C233.751952,110.480471 233.520021,110.873533 233.251465,111.220215 C232.982909,111.566896 232.643557,111.916014 232.233398,112.267578 C231.813474,112.609377 231.349612,112.912108 230.841797,113.175781 L228.673828,113.175781 C228.166013,113.175781 227.912109,111.867201 227.912109,109.25 C227.912109,108.185542 227.926758,106.608409 227.956055,104.518555 C227.985352,102.418935 228,100.846685 228,99.8017578 C228,99.1572233 227.941407,98.1709051 227.824219,96.8427734 C227.707031,95.5244075 227.648438,94.6308617 227.648438,94.1621094 Z M230.006836,110.93457 L230.006836,111.652344 C230.397463,111.652344 230.76367,111.544923 231.105469,111.330078 C231.447267,111.115233 231.73535,110.832033 231.969727,110.480469 C232.174806,110.158202 232.360351,109.760256 232.526367,109.286621 C232.692384,108.812986 232.824218,108.332034 232.921875,107.84375 C233.009766,107.41406 233.080566,106.940432 233.134277,106.422852 C233.187989,105.905271 233.224609,105.456057 233.244141,105.075195 C233.253906,104.840819 233.258789,104.494143 233.258789,104.035156 C233.258789,97.9999698 232.096691,94.8457045 229.772461,94.5722656 C229.625976,95.3632852 229.552734,96.4033139 229.552734,97.6923828 C229.552734,99.2548906 229.630859,101.4619 229.787109,104.313477 C229.933594,107.252944 230.006836,109.459954 230.006836,110.93457 Z M260.563477,101.193359 C260.563477,100.69531 260.583008,100.075199 260.62207,99.3330078 C260.661133,98.6005823 260.680664,97.9853541 260.680664,97.4873047 C260.592773,97.7607436 260.255862,99.1425657 259.669922,101.632812 C259.035153,104.289076 258.439456,106.530264 257.882812,108.356445 C257.277341,110.338877 256.784182,111.330078 256.40332,111.330078 C256.022459,111.330078 255.719728,111.212892 255.495117,110.978516 C255.270507,110.744139 255.158203,110.431643 255.158203,110.041016 C255.158203,109.455075 254.984865,108.36866 254.638184,106.781738 C254.291502,105.194816 253.878909,103.50538 253.400391,101.713379 C252.921873,99.9213778 252.501955,98.4834039 252.140625,97.3994141 L251.964844,100.783203 C251.876953,102.335945 251.811035,103.620112 251.76709,104.635742 C251.723144,105.651372 251.681641,106.745111 251.642578,107.916992 C251.59375,109.459969 251.569336,110.719722 251.569336,111.696289 L251.598633,112.150391 C251.608398,112.28711 251.613281,112.433593 251.613281,112.589844 C251.613281,112.931642 251.54004,113.183105 251.393555,113.344238 C251.24707,113.505372 250.988283,113.585938 250.617188,113.585938 C250.412108,113.585938 250.219239,113.515137 250.038574,113.373535 C249.857909,113.231933 249.767578,113.063478 249.767578,112.868164 C249.767578,110.895498 249.923827,107.838888 250.236328,103.698242 C250.539064,99.6943159 250.69043,96.6377059 250.69043,94.5283203 C250.573242,94.3330068 250.514648,94.1376963 250.514648,93.9423828 C250.514648,93.698241 250.629393,93.5151373 250.858887,93.3930664 C251.08838,93.2709955 251.359373,93.2099609 251.671875,93.2099609 C251.935548,93.2099609 252.414059,94.1498929 253.107422,96.0297852 C253.800785,97.9096774 254.49902,100.038562 255.202148,102.416504 C255.905277,104.794445 256.359374,106.51562 256.564453,107.580078 C256.671876,107.228514 256.857421,106.486334 257.121094,105.353516 C257.814457,102.374985 258.454099,99.8408308 259.040039,97.7509766 C259.4209,96.4033136 259.79199,95.3242228 260.15332,94.5136719 C260.534182,93.6738239 260.871092,93.2539062 261.164062,93.2539062 C261.447267,93.2539062 261.701171,93.3295891 261.925781,93.480957 C262.150392,93.632325 262.262695,93.8300769 262.262695,94.0742188 C262.262695,95.6269609 262.326171,97.7851424 262.453125,100.548828 C262.580079,103.312514 262.643555,105.397454 262.643555,106.803711 L262.614258,108.385742 C262.584961,109.088871 262.570312,109.616209 262.570312,109.967773 L262.570312,109.982422 C262.570312,110.158204 262.628906,110.866205 262.746094,112.106445 L262.804688,112.707031 C262.892579,112.931642 262.936523,113.12207 262.936523,113.27832 C262.936523,113.610353 262.84131,113.908202 262.650879,114.171875 C262.460448,114.435548 262.218751,114.567383 261.925781,114.567383 C261.300778,114.567383 260.988281,113.942389 260.988281,112.692383 C260.988281,111.989254 260.993164,111.349612 261.00293,110.773438 L261.00293,108.854492 C261.00293,107.95605 260.929688,106.652352 260.783203,104.943359 C260.636718,103.224601 260.563477,101.974613 260.563477,101.193359 Z M275.329102,101.310547 L275.329102,101.530273 L275.387695,104.928711 C275.387695,110.680693 274.054701,113.556641 271.388672,113.556641 C270.85156,113.556641 270.363283,113.395509 269.923828,113.073242 C269.484373,112.750975 269.132814,112.301761 268.869141,111.725586 C268.302732,110.543939 267.936524,109.215828 267.770508,107.741211 C267.604491,106.374017 267.521484,105.070319 267.521484,103.830078 C267.521484,103.585936 267.526367,103.385743 267.536133,103.229492 C267.545898,103.073241 267.550781,102.892579 267.550781,102.6875 C267.550781,102.589843 267.536133,102.541016 267.506836,102.541016 L267.506836,101.999023 C267.506836,101.842773 267.516601,101.413089 267.536133,100.709961 C267.536133,100.397459 267.541016,100.128907 267.550781,99.9042969 C267.560547,99.3671848 267.582519,98.888674 267.616699,98.46875 C267.650879,98.048826 267.707031,97.5019565 267.785156,96.828125 C267.84375,96.2812473 267.926757,95.7954123 268.03418,95.3706055 C268.141602,94.9457987 268.283202,94.5039085 268.458984,94.0449219 C268.605469,93.6445292 268.791015,93.3393565 269.015625,93.1293945 C269.240235,92.9194325 269.489256,92.8144531 269.762695,92.8144531 C270.563481,92.8144531 271.28613,92.960936 271.930664,93.2539062 C272.575199,93.5468765 273.112303,93.9521458 273.541992,94.4697266 C273.942385,94.9677759 274.281737,95.5781214 274.560059,96.3007812 C274.83838,97.0234411 275.036132,97.8046833 275.15332,98.6445312 C275.270508,99.4648479 275.329102,100.353511 275.329102,101.310547 Z M270.905273,94.4111328 C270.221676,94.4111328 269.767579,94.7968711 269.542969,95.5683594 C269.435546,95.9296893 269.362305,96.2934552 269.323242,96.659668 C269.284179,97.0258807 269.264648,97.4580053 269.264648,97.9560547 C269.264648,98.336916 269.269531,98.6591784 269.279297,98.9228516 C269.289063,99.1865248 269.293945,99.4550768 269.293945,99.7285156 C269.293945,99.9726575 269.269531,100.43652 269.220703,101.120117 C269.171875,101.803714 269.147461,102.262694 269.147461,102.49707 C269.147461,103.21973 269.186523,104.289055 269.264648,105.705078 C269.342774,107.208992 269.538084,108.668938 269.850586,110.084961 C269.997071,110.778324 270.194823,111.322752 270.443848,111.718262 C270.692872,112.113772 270.968748,112.311523 271.271484,112.311523 C271.623049,112.311523 271.947752,112.167482 272.245605,111.879395 C272.543459,111.591307 272.780273,111.193362 272.956055,110.685547 C273.307619,109.679682 273.537109,108.585943 273.644531,107.404297 C273.732422,106.349604 273.776367,105.460941 273.776367,104.738281 C273.776367,103.888668 273.712891,102.716804 273.585938,101.222656 C273.449218,99.6113201 273.380859,98.4541051 273.380859,97.7509766 L273.380859,97.2236328 C273.361328,96.7353491 273.244142,96.273928 273.029297,95.8393555 C272.814452,95.404783 272.521486,95.0581068 272.150391,94.7993164 C271.779295,94.540526 271.36426,94.4111328 270.905273,94.4111328 Z M285.817383,113.512695 C285.397459,113.512695 284.997072,113.029302 284.616211,112.0625 C284.23535,111.134761 283.922853,110.070319 283.678711,108.869141 L283.473633,107.858398 C282.916989,105.016587 282.550782,103.380862 282.375,102.951172 L282.008789,102.951172 C282.008789,103.537112 282.003906,104.069334 281.994141,104.547852 C281.984375,105.02637 281.979492,105.578122 281.979492,106.203125 C281.979492,108.849623 282.16992,110.934563 282.550781,112.458008 L282.213867,113.263672 L281.378906,113.263672 L280.983398,112.824219 L281.012695,110.817383 C281.012695,109.127921 280.929688,106.398456 280.763672,102.628906 C280.58789,98.9667786 280.5,96.2324309 280.5,94.4257812 C280.5,93.4785109 280.832028,93.0048828 281.496094,93.0048828 C282.199222,93.0048828 282.83154,93.1293933 283.393066,93.378418 C283.954593,93.6274427 284.396483,93.9887672 284.71875,94.4624023 C285.041017,94.9360375 285.202148,95.5048795 285.202148,96.1689453 L285.202148,98.2783203 C285.202148,98.5615249 285.148438,98.8935528 285.041016,99.2744141 C284.933593,99.6552753 284.82129,99.9824205 284.704102,100.255859 L284.132812,101.339844 L283.664062,102.21875 L284.235352,105.075195 C284.50879,106.569343 284.777342,107.802241 285.041016,108.773926 C285.304689,109.74561 285.622068,110.631832 285.993164,111.432617 L286.183594,111.813477 C286.291016,112.018556 286.36914,112.191894 286.417969,112.333496 C286.466797,112.475098 286.491211,112.614257 286.491211,112.750977 C286.491211,112.965821 286.427735,113.146484 286.300781,113.292969 C286.173827,113.439454 286.012696,113.512695 285.817383,113.512695 Z M283.708008,96.9160156 C283.708008,96.54492 283.69336,96.2299818 283.664062,95.9711914 C283.634765,95.712401 283.576172,95.4267594 283.488281,95.1142578 C283.390625,94.8017562 283.227052,94.5600594 282.997559,94.3891602 C282.768065,94.2182609 282.477541,94.1279297 282.125977,94.1181641 L282.082031,94.2939453 C282.042969,94.4013677 282.023438,94.4843747 282.023438,94.5429688 C282.023438,95.5390675 282.042969,96.7206963 282.082031,98.0878906 C282.121094,99.4648506 282.140625,100.592769 282.140625,101.47168 C282.433595,101.315429 282.699706,100.973635 282.938965,100.446289 C283.178224,99.9189427 283.36621,99.3256869 283.50293,98.6665039 C283.639649,98.0073209 283.708008,97.4238307 283.708008,96.9160156 Z M295.763672,94.5283203 C295.763672,94.7333995 295.680665,94.9165031 295.514648,95.0776367 C295.348632,95.2387703 295.138673,95.3681636 294.884766,95.4658203 C293.966792,95.1630844 293.209964,94.9726566 292.614258,94.8945312 C292.643555,95.3144552 292.658203,95.7441384 292.658203,96.1835938 C292.658203,96.7695342 292.638672,97.4873004 292.599609,98.3369141 C292.550781,99.3916068 292.526367,100.109373 292.526367,100.490234 L292.614258,100.958984 L293.097656,100.929688 C293.263673,100.919922 293.458983,100.915039 293.683594,100.915039 C294.650395,100.915039 295.133789,101.188474 295.133789,101.735352 C295.133789,101.950196 295.043458,102.138183 294.862793,102.299316 C294.682128,102.46045 294.455079,102.541016 294.181641,102.541016 C293.88867,102.541016 293.60547,102.521485 293.332031,102.482422 L292.570312,102.482422 C292.628907,103.244144 292.658203,104.000973 292.658203,104.75293 C292.658203,105.47559 292.638672,106.378901 292.599609,107.462891 C292.550781,108.810554 292.526367,109.718748 292.526367,110.1875 C292.526367,111.310552 292.545898,111.87207 292.584961,111.87207 L293.566406,111.828125 L294.796875,111.798828 C295.558598,111.798828 295.939453,112.042966 295.939453,112.53125 C295.939453,112.814455 295.814943,113.029296 295.565918,113.175781 C295.316893,113.322266 295.011721,113.395508 294.650391,113.395508 L292.116211,113.395508 C291.842772,113.395508 291.601075,113.305177 291.391113,113.124512 C291.181151,112.943847 291.071289,112.726564 291.061523,112.472656 L291.061523,111.681641 C291.061523,111.466796 291.056641,111.266602 291.046875,111.081055 L291.017578,110.451172 C291.017578,110.128905 290.993164,109.489263 290.944336,108.532227 C290.895508,107.584956 290.871094,106.945314 290.871094,106.613281 C290.871094,105.50976 290.905273,104.049814 290.973633,102.233398 C291.041993,100.416983 291.076172,98.9570368 291.076172,97.8535156 C291.076172,97.6386708 291.051758,97.2138704 291.00293,96.5791016 C290.944336,96.0224582 290.915039,95.6025405 290.915039,95.3193359 C290.915039,93.9033132 291.334957,93.1953125 292.174805,93.1953125 C292.555666,93.1953125 293.036618,93.256347 293.617676,93.378418 C294.198733,93.5004889 294.701658,93.6616201 295.126465,93.8618164 C295.551272,94.0620127 295.763672,94.2841785 295.763672,94.5283203 Z" id="…and-more" fill="#4A4A4A"></path>
        </g>
    </g>
</svg>